%TF.GenerationSoftware,KiCad,Pcbnew,9.0.1*%
%TF.CreationDate,2025-05-11T21:22:52+02:00*%
%TF.ProjectId,Traffic_Light_Arduino,54726166-6669-4635-9f4c-696768745f41,rev?*%
%TF.SameCoordinates,Original*%
%TF.FileFunction,Legend,Bot*%
%TF.FilePolarity,Positive*%
%FSLAX46Y46*%
G04 Gerber Fmt 4.6, Leading zero omitted, Abs format (unit mm)*
G04 Created by KiCad (PCBNEW 9.0.1) date 2025-05-11 21:22:52*
%MOMM*%
%LPD*%
G01*
G04 APERTURE LIST*
%ADD10C,0.150000*%
%ADD11C,0.120000*%
G04 APERTURE END LIST*
D10*
X162104819Y-108551666D02*
X162819104Y-108551666D01*
X162819104Y-108551666D02*
X162961961Y-108504047D01*
X162961961Y-108504047D02*
X163057200Y-108408809D01*
X163057200Y-108408809D02*
X163104819Y-108265952D01*
X163104819Y-108265952D02*
X163104819Y-108170714D01*
X163104819Y-109551666D02*
X163104819Y-108980238D01*
X163104819Y-109265952D02*
X162104819Y-109265952D01*
X162104819Y-109265952D02*
X162247676Y-109170714D01*
X162247676Y-109170714D02*
X162342914Y-109075476D01*
X162342914Y-109075476D02*
X162390533Y-108980238D01*
D11*
%TO.C,J1*%
X163650000Y-103230000D02*
X163650000Y-104500000D01*
X164920000Y-103230000D02*
X163650000Y-103230000D01*
X167030000Y-105577358D02*
X167030000Y-105890000D01*
X167890000Y-105577358D02*
X167890000Y-105890000D01*
X169570000Y-105577358D02*
X169570000Y-105890000D01*
X170430000Y-105577358D02*
X170430000Y-105890000D01*
X172110000Y-105577358D02*
X172110000Y-105890000D01*
X172970000Y-105577358D02*
X172970000Y-105890000D01*
X164490000Y-105660000D02*
X164490000Y-105890000D01*
X165350000Y-105660000D02*
X165350000Y-105890000D01*
X163540000Y-105890000D02*
X173920000Y-105890000D01*
X166190000Y-105890000D02*
X166190000Y-108650000D01*
X168730000Y-105890000D02*
X168730000Y-108650000D01*
X171270000Y-105890000D02*
X171270000Y-108650000D01*
X173920000Y-105890000D02*
X173920000Y-108650000D01*
X163540000Y-108650000D02*
X163540000Y-105890000D01*
X167030000Y-108650000D02*
X167030000Y-114650000D01*
X169570000Y-108650000D02*
X169570000Y-114650000D01*
X172110000Y-108650000D02*
X172110000Y-114650000D01*
X173920000Y-108650000D02*
X163540000Y-108650000D01*
X167030000Y-114650000D02*
X167890000Y-114650000D01*
X167890000Y-114650000D02*
X167890000Y-108650000D01*
X169570000Y-114650000D02*
X170430000Y-114650000D01*
X170430000Y-114650000D02*
X170430000Y-108650000D01*
X172110000Y-114650000D02*
X172970000Y-114650000D01*
X172970000Y-114650000D02*
X172970000Y-108650000D01*
X164490000Y-108650000D02*
X165350000Y-108650000D01*
X165350000Y-114650000D01*
X164490000Y-114650000D01*
X164490000Y-108650000D01*
G36*
X164490000Y-108650000D02*
G01*
X165350000Y-108650000D01*
X165350000Y-114650000D01*
X164490000Y-114650000D01*
X164490000Y-108650000D01*
G37*
%TD*%
M02*
