M48
; DRILL file {KiCad 9.0.1} date 2025-05-11T21:23:02+0200
; FORMAT={-:-/ absolute / metric / decimal}
; #@! TF.CreationDate,2025-05-11T21:23:02+02:00
; #@! TF.GenerationSoftware,Kicad,Pcbnew,9.0.1
; #@! TF.FileFunction,MixedPlating,1,2
FMAT,2
METRIC
; #@! TA.AperFunction,Plated,PTH,ComponentDrill
T1C0.700
; #@! TA.AperFunction,Plated,PTH,ComponentDrill
T2C0.900
; #@! TA.AperFunction,Plated,PTH,ComponentDrill
T3C1.000
; #@! TA.AperFunction,Plated,PTH,ComponentDrill
T4C2.500
%
G90
G05
T1
X166.5Y-95.5
X166.5Y-100.58
X169.0Y-95.46
X169.0Y-100.54
X171.5Y-95.46
X171.5Y-100.54
T2
X167.73Y-78.0
X167.73Y-84.5
X167.73Y-91.0
X170.27Y-78.0
X170.27Y-84.5
X170.27Y-91.0
T3
X164.92Y-104.5
X167.46Y-104.5
X170.0Y-104.5
X172.54Y-104.5
T4
X160.5Y-98.0
X161.0Y-78.0
X176.0Y-77.5
X176.5Y-98.0
M30
