%TF.GenerationSoftware,KiCad,Pcbnew,9.0.1*%
%TF.CreationDate,2025-05-11T21:22:52+02:00*%
%TF.ProjectId,Traffic_Light_Arduino,54726166-6669-4635-9f4c-696768745f41,rev?*%
%TF.SameCoordinates,Original*%
%TF.FileFunction,Copper,L1,Top*%
%TF.FilePolarity,Positive*%
%FSLAX46Y46*%
G04 Gerber Fmt 4.6, Leading zero omitted, Abs format (unit mm)*
G04 Created by KiCad (PCBNEW 9.0.1) date 2025-05-11 21:22:52*
%MOMM*%
%LPD*%
G01*
G04 APERTURE LIST*
%TA.AperFunction,ComponentPad*%
%ADD10C,5.000000*%
%TD*%
%TA.AperFunction,ComponentPad*%
%ADD11R,1.700000X1.700000*%
%TD*%
%TA.AperFunction,ComponentPad*%
%ADD12C,1.700000*%
%TD*%
%TA.AperFunction,ComponentPad*%
%ADD13C,1.400000*%
%TD*%
%TA.AperFunction,ComponentPad*%
%ADD14O,1.400000X1.400000*%
%TD*%
%TA.AperFunction,ComponentPad*%
%ADD15R,1.800000X1.800000*%
%TD*%
%TA.AperFunction,ComponentPad*%
%ADD16C,1.800000*%
%TD*%
%TA.AperFunction,Conductor*%
%ADD17C,0.200000*%
%TD*%
G04 APERTURE END LIST*
D10*
%TO.P,H4,1*%
%TO.N,N/C*%
X176500000Y-98000000D03*
%TD*%
D11*
%TO.P,J1,1,Pin_1*%
%TO.N,Net-(D1-K)*%
X164920000Y-104500000D03*
D12*
%TO.P,J1,2,Pin_2*%
%TO.N,Net-(J1-Pin_2)*%
X167460000Y-104500000D03*
%TO.P,J1,3,Pin_3*%
%TO.N,Net-(J1-Pin_3)*%
X170000000Y-104500000D03*
%TO.P,J1,4,Pin_4*%
%TO.N,Net-(J1-Pin_4)*%
X172540000Y-104500000D03*
%TD*%
D13*
%TO.P,R3,1*%
%TO.N,Net-(J1-Pin_4)*%
X171500000Y-100540000D03*
D14*
%TO.P,R3,2*%
%TO.N,Net-(D3-A)*%
X171500000Y-95460000D03*
%TD*%
D13*
%TO.P,R2,1*%
%TO.N,Net-(J1-Pin_3)*%
X169000000Y-100540000D03*
D14*
%TO.P,R2,2*%
%TO.N,Net-(D2-A)*%
X169000000Y-95460000D03*
%TD*%
D13*
%TO.P,R1,1*%
%TO.N,Net-(J1-Pin_2)*%
X166500000Y-100580000D03*
D14*
%TO.P,R1,2*%
%TO.N,Net-(D1-A)*%
X166500000Y-95500000D03*
%TD*%
D10*
%TO.P,H3,1*%
%TO.N,N/C*%
X160500000Y-98000000D03*
%TD*%
%TO.P,H2,1*%
%TO.N,N/C*%
X161000000Y-78000000D03*
%TD*%
%TO.P,H1,1*%
%TO.N,N/C*%
X176000000Y-77500000D03*
%TD*%
D15*
%TO.P,D3,1,K*%
%TO.N,Net-(D1-K)*%
X170270000Y-91000000D03*
D16*
%TO.P,D3,2,A*%
%TO.N,Net-(D3-A)*%
X167730000Y-91000000D03*
%TD*%
D15*
%TO.P,D2,1,K*%
%TO.N,Net-(D1-K)*%
X170270000Y-84500000D03*
D16*
%TO.P,D2,2,A*%
%TO.N,Net-(D2-A)*%
X167730000Y-84500000D03*
%TD*%
D15*
%TO.P,D1,1,K*%
%TO.N,Net-(D1-K)*%
X170270000Y-78000000D03*
D16*
%TO.P,D1,2,A*%
%TO.N,Net-(D1-A)*%
X167730000Y-78000000D03*
%TD*%
D17*
%TO.N,Net-(J1-Pin_4)*%
X172540000Y-103040000D02*
X172540000Y-104500000D01*
X171500000Y-102000000D02*
X172540000Y-103040000D01*
X171500000Y-100540000D02*
X171500000Y-102000000D01*
%TO.N,Net-(J1-Pin_3)*%
X169000000Y-102000000D02*
X170000000Y-103000000D01*
X170000000Y-103000000D02*
X170000000Y-104500000D01*
X169000000Y-100540000D02*
X169000000Y-102000000D01*
%TO.N,Net-(J1-Pin_2)*%
X167460000Y-102960000D02*
X167460000Y-104500000D01*
X166500000Y-102000000D02*
X167460000Y-102960000D01*
X166500000Y-100580000D02*
X166500000Y-102000000D01*
%TO.N,Net-(D1-K)*%
X164099000Y-103679000D02*
X164920000Y-104500000D01*
X164099000Y-79932529D02*
X164099000Y-103679000D01*
X167232529Y-76799000D02*
X164099000Y-79932529D01*
X170270000Y-78000000D02*
X169069000Y-76799000D01*
X169069000Y-76799000D02*
X167232529Y-76799000D01*
%TO.N,Net-(D2-A)*%
X167040000Y-93500000D02*
X169000000Y-95460000D01*
X165500000Y-93500000D02*
X167040000Y-93500000D01*
X165500000Y-86730000D02*
X165500000Y-93500000D01*
X167730000Y-84500000D02*
X165500000Y-86730000D01*
%TO.N,Net-(D1-A)*%
X164500000Y-93500000D02*
X166500000Y-95500000D01*
X164500000Y-81230000D02*
X164500000Y-93500000D01*
X167730000Y-78000000D02*
X164500000Y-81230000D01*
%TO.N,Net-(D3-A)*%
X169540000Y-93500000D02*
X171500000Y-95460000D01*
X168000000Y-93500000D02*
X169540000Y-93500000D01*
X167730000Y-93230000D02*
X168000000Y-93500000D01*
X167730000Y-91000000D02*
X167730000Y-93230000D01*
%TO.N,Net-(D1-K)*%
X170270000Y-78000000D02*
X170270000Y-91000000D01*
%TD*%
M02*
