%TF.GenerationSoftware,KiCad,Pcbnew,9.0.1*%
%TF.CreationDate,2025-05-11T21:22:52+02:00*%
%TF.ProjectId,Traffic_Light_Arduino,54726166-6669-4635-9f4c-696768745f41,rev?*%
%TF.SameCoordinates,Original*%
%TF.FileFunction,Profile,NP*%
%FSLAX46Y46*%
G04 Gerber Fmt 4.6, Leading zero omitted, Abs format (unit mm)*
G04 Created by KiCad (PCBNEW 9.0.1) date 2025-05-11 21:22:52*
%MOMM*%
%LPD*%
G01*
G04 APERTURE LIST*
%ADD10C,0.150000*%
%TA.AperFunction,Profile*%
%ADD11C,0.050000*%
%TD*%
G04 APERTURE END LIST*
D10*
X164360588Y-101417438D02*
X164265350Y-101369819D01*
X164265350Y-101369819D02*
X164122493Y-101369819D01*
X164122493Y-101369819D02*
X163979636Y-101417438D01*
X163979636Y-101417438D02*
X163884398Y-101512676D01*
X163884398Y-101512676D02*
X163836779Y-101607914D01*
X163836779Y-101607914D02*
X163789160Y-101798390D01*
X163789160Y-101798390D02*
X163789160Y-101941247D01*
X163789160Y-101941247D02*
X163836779Y-102131723D01*
X163836779Y-102131723D02*
X163884398Y-102226961D01*
X163884398Y-102226961D02*
X163979636Y-102322200D01*
X163979636Y-102322200D02*
X164122493Y-102369819D01*
X164122493Y-102369819D02*
X164217731Y-102369819D01*
X164217731Y-102369819D02*
X164360588Y-102322200D01*
X164360588Y-102322200D02*
X164408207Y-102274580D01*
X164408207Y-102274580D02*
X164408207Y-101941247D01*
X164408207Y-101941247D02*
X164217731Y-101941247D01*
X164836779Y-102369819D02*
X164836779Y-101369819D01*
X164836779Y-101369819D02*
X165408207Y-102369819D01*
X165408207Y-102369819D02*
X165408207Y-101369819D01*
X165884398Y-102369819D02*
X165884398Y-101369819D01*
X165884398Y-101369819D02*
X166122493Y-101369819D01*
X166122493Y-101369819D02*
X166265350Y-101417438D01*
X166265350Y-101417438D02*
X166360588Y-101512676D01*
X166360588Y-101512676D02*
X166408207Y-101607914D01*
X166408207Y-101607914D02*
X166455826Y-101798390D01*
X166455826Y-101798390D02*
X166455826Y-101941247D01*
X166455826Y-101941247D02*
X166408207Y-102131723D01*
X166408207Y-102131723D02*
X166360588Y-102226961D01*
X166360588Y-102226961D02*
X166265350Y-102322200D01*
X166265350Y-102322200D02*
X166122493Y-102369819D01*
X166122493Y-102369819D02*
X165884398Y-102369819D01*
D11*
X155000000Y-107500000D02*
X182500000Y-107500000D01*
X155000000Y-70000000D02*
X182500000Y-70000000D01*
X182500000Y-70000000D02*
X182500000Y-107500000D01*
X155000000Y-70000000D02*
X155000000Y-107500000D01*
M02*
